<svg xmlns="http://www.w3.org/2000/svg" version="1.1" xmlns:xlink="http://www.w3.org/1999/xlink" xmlns:svgjs="http://svgjs.dev/svgjs" width="1440" height="560" preserveAspectRatio="none" viewBox="0 0 1440 560"><g mask="url(&quot;#SvgjsMask2226&quot;)" fill="none"><rect width="1440" height="560" x="0" y="0" fill="url(&quot;#SvgjsLinearGradient2227&quot;)"></rect><path d="M0 0L406.16 0L0 141.33z" fill="rgba(255, 255, 255, .1)"></path><path d="M0 141.33L406.16 0L605.13 0L0 291.55z" fill="rgba(255, 255, 255, .075)"></path><path d="M0 291.55L605.13 0L967.96 0L0 383.61z" fill="rgba(255, 255, 255, .05)"></path><path d="M0 383.61L967.96 0L1183.83 0L0 498.15000000000003z" fill="rgba(255, 255, 255, .025)"></path><path d="M1440 560L860.5 560L1440 323.89z" fill="rgba(0, 0, 0, .1)"></path><path d="M1440 323.89L860.5 560L647.52 560L1440 259.77z" fill="rgba(0, 0, 0, .075)"></path><path d="M1440 259.77L647.52 560L347.82 560L1440 189.42999999999998z" fill="rgba(0, 0, 0, .05)"></path><path d="M1440 189.42999999999995L347.81999999999994 560L110.95999999999992 560L1440 153.53999999999996z" fill="rgba(0, 0, 0, .025)"></path></g><defs><mask id="SvgjsMask2226"><rect width="1440" height="560" fill="#ffffff"></rect></mask><linearGradient x1="15.28%" y1="-39.29%" x2="84.72%" y2="139.29%" gradientUnits="userSpaceOnUse" id="SvgjsLinearGradient2227"><stop stop-color="rgba(161, 254, 223, 1)" offset="0"></stop><stop stop-color="rgba(161, 254, 223, 1)" offset="0.42"></stop><stop stop-color="rgba(87, 255, 198, 1)" offset="1"></stop></linearGradient></defs></svg>